<?xml version="1.0" encoding="UTF-8"?>
<svg width="179px" height="52px" viewBox="0 0 179 52" version="1.1" xmlns="http://www.w3.org/2000/svg" xmlns:xlink="http://www.w3.org/1999/xlink">
    <!-- Generator: Sketch 55 (78076) - https://sketchapp.com -->
    <title>Combined Shape</title>
    <desc>Created with Sketch.</desc>
    <g id="Symbols" stroke="none" stroke-width="1" fill="none" fill-rule="evenodd">
        <g id="Topnav" transform="translate(0.000000, -7.000000)" fill="#2787C7" fill-rule="nonzero">
            <g id="logo-+-architecture" transform="translate(0.000000, 7.000000)">
                <path d="M4.06363636,4.08685714 L4.06363636,34.5783853 L23.5521782,47.7672084 L21.2624659,51.0857143 L-4.24861316e-13,36.6981269 L-6.53699317e-13,-2.13162821e-14 L36.5727273,-2.13162821e-14 L36.5727273,36.3730286 L23.5690909,36.3730286 L23.5690909,32.2861714 L32.5090909,32.2861714 L32.5090909,4.08685714 L4.06363636,4.08685714 Z M58.9227273,28.1993143 L58.9227273,7.76791595 L65.9121063,7.76791595 C67.3258314,7.72061915 68.7015992,8.25591707 69.7487957,9.26073467 C70.7773515,10.1885576 71.3550569,11.5571691 71.3212094,12.9858575 C71.3212094,14.9495095 70.4065888,16.4727939 68.8525199,17.0876469 C71.3212094,17.5584803 72.7363818,19.5498285 72.7363818,22.1587992 C72.7850791,23.791388 72.1753851,25.3690124 71.0591405,26.498775 C69.9479681,27.6426231 68.5616234,28.1993143 66.8660372,28.1993143 L58.9227273,28.1993143 Z M62.3898995,16.013039 L65.4403821,16.013039 C66.910589,16.013039 67.9378993,14.9855144 67.9378993,13.4926957 C67.9378993,12.1078917 66.910589,11.088676 65.4692097,11.088676 L62.3898995,11.088676 L62.3898995,16.013039 Z M62.3898995,24.8951719 L66.2737614,24.8951719 C68.0217613,24.8951719 69.2980371,23.6350003 69.2980371,21.962157 C69.2980371,20.2893138 68.0217613,19.0900735 66.2449338,19.0900735 L62.3898995,19.0900735 L62.3898995,24.8951719 Z M78.8833277,25.2591622 C76.9872335,23.3705045 75.9378659,20.7342739 75.9919952,17.9955317 C75.9378659,15.2567895 76.9872335,12.6205589 78.8833277,10.7319012 C80.8006749,8.75398611 83.1501484,7.76502857 85.931748,7.76502857 C88.7133477,7.76502857 91.0636718,8.75398611 92.9827203,10.7319012 C94.8968249,12.609632 95.9573863,15.2506732 95.8995721,17.9955317 C95.9546806,20.7339316 94.9062123,23.3702296 93.0107915,25.2591622 C89.0466788,29.179365 82.8474404,29.179365 78.8833277,25.2591622 Z M81.2055806,22.9999594 C82.4517264,24.3180316 84.1602774,25.043041 85.931748,25.0054692 C87.6958758,25.0439082 89.3968473,24.3181966 90.6323962,22.9999594 C93.1908377,20.2018153 93.1908377,15.7919185 90.6323962,12.9937743 C89.4073486,11.6559762 87.7019326,10.917711 85.931748,10.9588896 C84.1542225,10.9184142 82.4411881,11.6559733 81.2055806,12.9937743 C79.9513957,14.3224951 79.268599,16.1285366 79.3146032,17.9955317 C79.3146032,19.998371 79.9372732,21.6700742 81.2055806,22.9999594 Z M102.046134,25.2594248 C100.148982,23.3715063 99.0994138,20.7347202 99.1548146,17.9956853 C99.0994138,15.2566503 100.148982,12.6198642 102.046134,10.7319457 C103.963472,8.75400095 106.312935,7.76502857 109.094521,7.76502857 C111.876108,7.76502857 114.226421,8.75400095 116.145461,10.7319457 C118.059557,12.6097047 119.120113,15.2507856 119.062299,17.9956853 C119.1177,20.7347202 118.068132,23.3715063 116.17098,25.2594248 C114.254492,27.2115548 111.87866,28.1969666 109.094521,28.1969666 C106.462026,28.2560938 103.919014,27.1962483 102.046134,25.2594248 Z M104.368376,23.0001882 C105.614516,24.3182801 107.323059,25.0433004 109.094521,25.005728 C110.858641,25.0441676 112.559605,24.3184451 113.795148,23.0001882 C116.353577,20.202002 116.353577,15.792039 113.795148,12.9938529 C112.570106,11.6560346 110.864698,10.9177583 109.094521,10.9589376 C107.317004,10.9184616 105.603978,11.6560317 104.368376,12.9938529 C103.114197,14.3225936 102.431403,16.1286622 102.477407,17.9956853 C102.477407,19.9985546 103.100074,21.6702829 104.368376,23.0001882 Z M125.202419,10.711921 C127.090469,8.77525148 129.640924,7.71438859 132.281651,7.76731131 C134.91502,7.70896478 137.458697,8.77122239 139.332802,10.711921 C141.229897,12.6049593 142.279722,15.2477016 142.225254,17.9931377 C142.256375,20.4899919 141.354775,22.9005526 139.713186,24.7095248 L141.548732,27.0330895 L139.286849,29.0166857 L137.395139,26.6636749 C135.874506,27.6879064 134.096116,28.2109749 132.28931,28.1654258 C129.506633,28.1654258 127.155398,27.2017354 125.210077,25.2475853 C123.317217,23.3626057 122.267517,20.7298929 122.317625,17.9931377 C122.261171,15.2489197 123.308144,12.6063616 125.202419,10.711921 Z M127.543441,22.974882 C128.791996,24.290096 130.502278,25.0076319 132.27144,24.9584782 C133.321709,24.9758123 134.357319,24.6985579 135.271114,24.1554028 L132.623742,20.8681476 L134.893283,18.8577822 L137.566185,22.1718066 C138.444991,20.9711846 138.902932,19.4899855 138.863065,17.9770762 C138.895542,16.1116304 138.203501,14.3124688 136.945826,12.9926551 C135.731153,11.6528434 134.033986,10.9122328 132.27144,10.9528436 C130.490922,10.9164529 128.77688,11.6617689 127.543441,13.0087166 C126.285081,14.3282576 125.592142,16.1273585 125.62365,17.9931377 C125.58296,19.8598995 126.277356,21.6618156 127.543441,22.974882 Z M145.478182,28.1744147 L145.478182,7.76502857 L157.887987,7.76502857 L157.887987,11.0849775 L148.966129,11.0849775 L148.966129,15.9376362 L157.322945,15.9376362 L157.322945,19.2575851 L148.966129,19.2575851 L148.966129,24.8793653 L158.075455,24.8793653 L158.075455,28.1993143 L145.478182,28.1744147 Z M161.326364,28.1993143 L161.326364,7.76502857 L168.31786,7.76502857 C171.546949,7.76502857 174.075562,8.70128838 175.871859,10.607048 C177.668156,12.5128076 178.596818,14.9476371 178.596818,18.0251064 C178.596818,21.1025758 177.697343,23.5651053 175.901046,25.4126949 C174.104749,27.2602845 171.576136,28.1993143 168.347046,28.1993143 L161.326364,28.1993143 Z M164.836705,24.875315 L168.092328,24.875315 C172.950555,24.875315 175.086477,22.2078055 175.086477,18.0140264 C175.086477,13.7039073 172.979741,11.0668679 168.065794,11.0668679 L164.828745,11.0668679 L164.836705,24.875315 Z" id="Combined-Shape"></path>
            </g>
        </g>
    </g>
</svg>